<?xml version="1.0" encoding="UTF-8"?>
<svg version="1.1" xmlns="http://www.w3.org/2000/svg" width="404" height="169">
<path d="M0 0 C4.06788665 2.57300626 7.4984254 5.8805391 11.01953125 9.140625 C13.65113389 11.5294883 16.35624161 13.77235416 19.125 16 C23.94189294 19.8984176 28.53311473 23.9938124 33.09375 28.1875 C36.572775 31.37311325 40.12061043 34.47596518 43.6875 37.5625 C43.3575 39.2125 43.0275 40.8625 42.6875 42.5625 C40.63671875 43.4296875 40.63671875 43.4296875 37.6875 43.5625 C35.00093368 41.93366746 32.78961856 39.82639132 30.5 37.6875 C29.25774544 36.56373741 28.0143097 35.44127876 26.76953125 34.3203125 C26.22530518 33.8164502 25.6810791 33.31258789 25.12036133 32.79345703 C23.68641046 31.46044545 23.68641046 31.46044545 21.6875 30.5625 C21.6875 29.9025 21.6875 29.2425 21.6875 28.5625 C21.13320312 28.32789062 20.57890625 28.09328125 20.0078125 27.8515625 C17.10332275 26.23795708 14.98129995 24.21526205 12.5625 21.9375 C8.87605718 18.54183275 5.17372831 15.19649589 1.3125 12 C0.54164062 11.35933594 -0.22921875 10.71867187 -1.0234375 10.05859375 C-3.61186501 8.36683994 -5.21836792 7.68224195 -8.3125 7.5625 C-12.76616236 9.58226857 -16.34035862 12.99404218 -20 16.1875 C-20.61721924 16.72093018 -21.23443848 17.25436035 -21.87036133 17.80395508 C-25.45297945 20.91006963 -28.99061594 24.06118467 -32.5 27.25 C-36.63193051 30.99959278 -40.90990021 34.52549178 -45.24609375 38.03515625 C-50.7611222 42.58066378 -56.14254412 47.2860711 -61.50585938 52.00927734 C-62.75529775 53.08345666 -64.02954307 54.12920095 -65.32226562 55.15087891 C-65.96357422 55.66440918 -66.60488281 56.17793945 -67.265625 56.70703125 C-68.14202637 57.3872937 -68.14202637 57.3872937 -69.03613281 58.08129883 C-70.74768933 59.74165152 -70.74768933 59.74165152 -70.3125 63.5625 C-69.32507813 63.61148438 -68.33765625 63.66046875 -67.3203125 63.7109375 C-66.03898437 63.78570312 -64.75765625 63.86046875 -63.4375 63.9375 C-62.16132812 64.00710937 -60.88515625 64.07671875 -59.5703125 64.1484375 C-56.3125 64.5625 -56.3125 64.5625 -54.3125 66.5625 C-54.04748535 68.87083435 -54.04748535 68.87083435 -54.02539062 71.79077148 C-54.01197632 72.8820787 -53.99856201 73.97338593 -53.98474121 75.09776306 C-53.97946411 76.28108719 -53.97418701 77.46441132 -53.96875 78.68359375 C-53.9541272 79.8944313 -53.93950439 81.10526886 -53.92443848 82.35279846 C-53.87779386 86.23516536 -53.84367334 90.11747982 -53.8125 94 C-53.77147103 99.10305755 -53.71782639 104.20574746 -53.65625 109.30859375 C-53.6509729 110.48989365 -53.6456958 111.67119354 -53.64025879 112.88829041 C-53.62684448 113.98274979 -53.61343018 115.07720917 -53.59960938 116.20483398 C-53.59231812 117.16920883 -53.58502686 118.13358368 -53.57751465 119.12718201 C-53.47396469 121.8201868 -53.47396469 121.8201868 -51.3125 124.5625 C-48.32281886 125.02843221 -48.32281886 125.02843221 -44.73202515 124.96122742 C-44.04836305 124.96787424 -43.36470096 124.97452107 -42.66032183 124.98136932 C-40.35852231 125.00009299 -38.05723832 124.99738788 -35.75537109 124.99487305 C-34.10976929 125.00388453 -32.46417423 125.01421023 -30.81858826 125.02575684 C-26.34155922 125.0534252 -21.86465718 125.06262463 -17.38755369 125.06861091 C-12.7123072 125.07796909 -8.03715655 125.10417029 -3.36196899 125.12861633 C5.4954789 125.1723556 14.35290828 125.20085687 23.21043146 125.22393972 C33.29256583 125.25095167 43.37460414 125.29486556 53.45667005 125.34022844 C74.20022842 125.43318105 94.94381556 125.50481307 115.6875 125.5625 C115.6875 128.2025 115.6875 130.8425 115.6875 133.5625 C83.7116907 134.40104814 51.75472853 134.72402186 19.76831055 134.69287109 C13.72769927 134.6870661 7.68713141 134.69054407 1.64652157 134.69644356 C-3.09521307 134.70006585 -7.83693745 134.69890474 -12.57867241 134.69631577 C-14.80834394 134.69565667 -17.03801646 134.69643858 -19.26768684 134.69879532 C-54.00393187 134.72759331 -54.00393187 134.72759331 -59.3125 129.5625 C-61.83311572 125.98043023 -62.68495404 123.58870321 -62.65307617 119.22143555 C-62.65284958 118.1807341 -62.65262299 117.14003265 -62.65238953 116.0677948 C-62.63690567 114.9561647 -62.62142181 113.84453461 -62.60546875 112.69921875 C-62.60122391 111.55209915 -62.59697906 110.40497955 -62.59260559 109.22309875 C-62.57583484 105.56515879 -62.53818435 101.907773 -62.5 98.25 C-62.48495114 95.76758609 -62.47126309 93.28516353 -62.45898438 90.80273438 C-62.42593649 84.72246769 -62.3757524 78.64252344 -62.3125 72.5625 C-62.92230713 72.57845215 -63.53211426 72.5944043 -64.16040039 72.61083984 C-64.96469482 72.62324707 -65.76898926 72.6356543 -66.59765625 72.6484375 C-67.39308838 72.66438965 -68.18852051 72.6803418 -69.00805664 72.69677734 C-73.30642397 72.44631627 -76.33482044 70.54017956 -79.3125 67.5625 C-80.7091496 63.05024745 -80.11584387 59.95308228 -78.39379883 55.59570312 C-76.54891013 52.12669588 -73.81002008 50.00873645 -70.75 47.625 C-69.48085351 46.58966514 -68.21262914 45.55319892 -66.9453125 44.515625 C-66.32430664 44.01482422 -65.70330078 43.51402344 -65.06347656 42.99804688 C-62.67387373 41.03891907 -60.39912602 38.96631846 -58.125 36.875 C-53.88541957 33.02398995 -49.48317888 29.41406045 -45.03125 25.8125 C-42.39102271 23.62748431 -39.8452028 21.37078609 -37.3125 19.0625 C-11.0712775 -4.80451665 -11.0712775 -4.80451665 0 0 Z " fill="#FDFDFC" transform="translate(110.3125,18.4375)"/>
<path d="M0 0 C1.98 0 3.96 0 6 0 C6 6.93 6 13.86 6 21 C9.63 21 13.26 21 17 21 C17.1134375 20.16082031 17.226875 19.32164063 17.34375 18.45703125 C18.05903799 14.68899628 19.19104948 11.29091902 20.5 7.6875 C20.9434375 6.45386719 21.386875 5.22023438 21.84375 3.94921875 C23 1 23 1 24 0 C26.33297433 -0.04092937 28.66705225 -0.04241723 31 0 C32.34117853 3.60129621 33.6715839 7.20647859 35 10.8125 C35.3815625 11.83666016 35.763125 12.86082031 36.15625 13.91601562 C36.69765625 15.39038086 36.69765625 15.39038086 37.25 16.89453125 C37.58515625 17.80050049 37.9203125 18.70646973 38.265625 19.63989258 C39 22 39 22 39 25 C37.02 25 35.04 25 33 25 C32.67 23.35 32.34 21.7 32 20 C30.54052295 20.06006078 29.08220728 20.1488689 27.625 20.25 C26.81289062 20.29640625 26.00078125 20.3428125 25.1640625 20.390625 C24.44992188 20.59171875 23.73578125 20.7928125 23 21 C22.34 22.32 21.68 23.64 21 25 C14.07 25 7.14 25 0 25 C0 16.75 0 8.5 0 0 Z M27 7 C25.74335022 9.90600261 25 11.79604584 25 15 C26.65 15 28.3 15 30 15 C29.34 12.36 28.68 9.72 28 7 C27.67 7 27.34 7 27 7 Z " fill="#F9FCFB" transform="translate(74,102)"/>
<path d="M0 0 C3.89482216 -0.23282073 7.78785854 -0.37456639 11.6875 -0.5 C12.79029297 -0.56703125 13.89308594 -0.6340625 15.02929688 -0.703125 C18.20966588 -0.77999192 20.90917614 -0.76632933 24 0 C26.45723683 2.36750091 27.79058697 4.82970266 29 8 C29.32250732 7.38576172 29.64501465 6.77152344 29.97729492 6.13867188 C31.17746395 3.90223693 32.35567406 1.93750033 34 0 C37.3125 -0.5 37.3125 -0.5 40 0 C38.92768825 3.80183257 37.49038158 6.90961754 35.4375 10.25 C32.6478205 15.06629961 32.12629257 19.50053244 32 25 C30.02 25 28.04 25 26 25 C25.98582031 24.31035156 25.97164063 23.62070313 25.95703125 22.91015625 C25.59473407 15.77192264 23.96845544 10.93071754 20 5 C18.00045254 4.95745644 15.99958364 4.95919217 14 5 C12.45049732 6.54950268 12.78344807 8.09990594 12.68359375 10.25390625 C12.64169922 11.10791016 12.59980469 11.96191406 12.55664062 12.84179688 C12.49766602 14.18854492 12.49766602 14.18854492 12.4375 15.5625 C12.39431641 16.46419922 12.35113281 17.36589844 12.30664062 18.29492188 C12.20021858 20.52978485 12.09820012 22.76476308 12 25 C10.35 25 8.7 25 7 25 C6.67 18.4 6.34 11.8 6 5 C3.03 4.505 3.03 4.505 0 4 C0 2.68 0 1.36 0 0 Z " fill="#FBFDFB" transform="translate(327,102)"/>
<path d="M0 0 C2.31 0 4.62 0 7 0 C9.64 4.62 12.28 9.24 15 14 C15.33 9.38 15.66 4.76 16 0 C17.65 0 19.3 0 21 0 C21 8.25 21 16.5 21 25 C19.02 25 17.04 25 15 25 C13.03061502 22.63914706 11.61827367 20.63100599 10.125 18 C9.7228125 17.33226563 9.320625 16.66453125 8.90625 15.9765625 C7.91789927 14.32931129 6.95628934 12.66606855 6 11 C5.67 15.62 5.34 20.24 5 25 C3.35 25 1.7 25 0 25 C0 16.75 0 8.5 0 0 Z " fill="#F8FBF8" transform="translate(115,102)"/>
<path d="M0 0 C2.206875 -0.061875 4.41375 -0.12375 6.6875 -0.1875 C8.54955078 -0.23970703 8.54955078 -0.23970703 10.44921875 -0.29296875 C15.16216938 0.09588856 17.71961552 1.54301076 20.8125 5.0625 C22.56766891 9.40423362 22.81046726 13.38770448 22 18 C20.30904867 21.11886578 18.21962291 23.39018854 15 25 C12.44612508 25.07173806 9.92723239 25.09287732 7.375 25.0625 C4.94125 25.041875 2.5075 25.02125 0 25 C0 16.75 0 8.5 0 0 Z M6 5 C6 10.28 6 15.56 6 21 C7.27875 20.896875 8.5575 20.79375 9.875 20.6875 C10.59429687 20.62949219 11.31359375 20.57148437 12.0546875 20.51171875 C14.39519216 20.12606964 14.39519216 20.12606964 16 17 C16.3157994 14.81813053 16.3157994 14.81813053 16.25 12.5 C16.25515625 11.7265625 16.2603125 10.953125 16.265625 10.15625 C16.12738062 7.70486156 16.12738062 7.70486156 14 5 C9.90753225 3.87735026 9.90753225 3.87735026 6 5 Z " fill="#FBFAF1" transform="translate(140,102)"/>
<path d="M0 0 C1.051875 -0.02126953 1.051875 -0.02126953 2.125 -0.04296875 C4 0.1875 4 0.1875 6 2.1875 C6.34490322 6.24011287 6.30163882 7.73504176 4 11.1875 C3.34 11.1875 2.68 11.1875 2 11.1875 C2.99 12.5075 3.98 13.8275 5 15.1875 C5.33 14.1975 5.66 13.2075 6 12.1875 C7.32 12.1875 8.64 12.1875 10 12.1875 C9.67 15.1575 9.34 18.1275 9 21.1875 C9.66 21.1875 10.32 21.1875 11 21.1875 C11.33 22.5075 11.66 23.8275 12 25.1875 C10.824375 25.166875 9.64875 25.14625 8.4375 25.125 C5.55725017 25.10468078 3.24636961 25.3304299 0.375 25.875 C-3.70728474 26.25298933 -5.58982619 25.37975459 -9 23.1875 C-10.52491998 20.13766004 -10.23562548 17.5451631 -10 14.1875 C-9 13.1875 -8 12.1875 -7 11.1875 C-7.29868656 9.18203311 -7.63371323 7.18172795 -8 5.1875 C-6.43910579 0.74495494 -4.51546339 0.04150242 0 0 Z M-2 4.1875 C-2 5.5075 -2 6.8275 -2 8.1875 C-1.01 7.8575 -0.02 7.5275 1 7.1875 C1 6.1975 1 5.2075 1 4.1875 C0.01 4.1875 -0.98 4.1875 -2 4.1875 Z M-4 14.1875 C-4.67958603 16.58469432 -4.67958603 16.58469432 -5 19.1875 C-4.34 19.8475 -3.68 20.5075 -3 21.1875 C-1.68 21.1875 -0.36 21.1875 1 21.1875 C-0.29299694 18.30312221 -1.65941363 16.31530579 -4 14.1875 Z " fill="#FAFBF8" transform="translate(180,101.8125)"/>
<path d="M0 0 C2.3925 -0.0825 4.785 -0.165 7.25 -0.25 C7.99668945 -0.28641602 8.74337891 -0.32283203 9.51269531 -0.36035156 C12.91161185 -0.41703064 14.70506564 -0.21653408 17.46875 1.8125 C19.46591068 4.66558669 19.30966724 6.59366036 19 10 C17.02 10.99 17.02 10.99 15 12 C15.27714844 12.51949219 15.55429688 13.03898437 15.83984375 13.57421875 C17.80733267 17.36216005 19.46337389 20.70699113 20 25 C18.02 25 16.04 25 14 25 C13.75765625 24.36191406 13.5153125 23.72382812 13.265625 23.06640625 C12.93046875 22.24011719 12.5953125 21.41382812 12.25 20.5625 C11.92515625 19.73878906 11.6003125 18.91507813 11.265625 18.06640625 C10.18068448 15.8150121 10.18068448 15.8150121 7.859375 15.21484375 C6.93898437 15.10849609 6.93898437 15.10849609 6 15 C6.185625 16.27875 6.37125 17.5575 6.5625 18.875 C7.125 22.75 7.125 22.75 6 25 C4.02 25 2.04 25 0 25 C0 16.75 0 8.5 0 0 Z M7 4 C5.70366379 5.06645115 5.70366379 5.06645115 5.9375 7.5625 C5.958125 8.366875 5.97875 9.17125 6 10 C8.31 10 10.62 10 13 10 C13 8.35 13 6.7 13 5 C11.0085944 4.61866701 9.00720923 4.28674418 7 4 Z " fill="#FBFBF7" transform="translate(220,102)"/>
<path d="M0 0 C1.24394531 -0.03738281 2.48789062 -0.07476562 3.76953125 -0.11328125 C7.1875 0.3125 7.1875 0.3125 9.65234375 2.09765625 C11.1875 4.3125 11.1875 4.3125 10.9375 8.0625 C10.69 9.135 10.4425 10.2075 10.1875 11.3125 C9.1975 11.6425 8.2075 11.9725 7.1875 12.3125 C7.46464844 12.83199219 7.74179687 13.35148437 8.02734375 13.88671875 C9.99483267 17.67466005 11.65087389 21.01949113 12.1875 25.3125 C10.2075 25.3125 8.2275 25.3125 6.1875 25.3125 C5.94515625 24.67441406 5.7028125 24.03632812 5.453125 23.37890625 C5.11796875 22.55261719 4.7828125 21.72632812 4.4375 20.875 C4.11265625 20.05128906 3.7878125 19.22757813 3.453125 18.37890625 C2.22039175 15.82444599 2.22039175 15.82444599 -1.8125 15.3125 C-1.8125 18.6125 -1.8125 21.9125 -1.8125 25.3125 C-3.4625 25.3125 -5.1125 25.3125 -6.8125 25.3125 C-8.05747833 22.82254335 -7.94184372 21.12255089 -7.9453125 18.33984375 C-7.94660156 17.35822266 -7.94789063 16.37660156 -7.94921875 15.36523438 C-7.94535156 14.33720703 -7.94148438 13.30917969 -7.9375 12.25 C-7.94136719 11.21810547 -7.94523437 10.18621094 -7.94921875 9.12304688 C-7.94792969 8.14271484 -7.94664062 7.16238281 -7.9453125 6.15234375 C-7.94362061 4.79677368 -7.94362061 4.79677368 -7.94189453 3.41381836 C-7.65932265 -1.17504229 -3.80943674 0.07454099 0 0 Z M-0.8125 4.3125 C-2.10883621 5.37895115 -2.10883621 5.37895115 -1.875 7.875 C-1.854375 8.679375 -1.83375 9.48375 -1.8125 10.3125 C0.4975 10.3125 2.8075 10.3125 5.1875 10.3125 C5.1875 8.6625 5.1875 7.0125 5.1875 5.3125 C3.1960944 4.93116701 1.19470923 4.59924418 -0.8125 4.3125 Z " fill="#F7F9F7" transform="translate(314.8125,101.6875)"/>
<path d="M0 0 C4.19442165 2.62151353 5.32159534 5.35617315 6.4375 10 C7.04660043 13.95329603 7.27035404 16.54511341 5 20 C2.52243237 23.02813821 0.86554499 24.71775707 -2.875 25.9375 C-7.86667251 26.03733345 -11.51183963 25.25318768 -15.375 22 C-17.63077481 17.83549266 -18.23044618 13.72414666 -18 9 C-14.62195601 0.53967361 -8.43556445 -1.11588569 0 0 Z M-9.69921875 5.22265625 C-11.26935011 7.36803093 -11.55047609 8.80393762 -11.8125 11.4375 C-11.90144531 12.19933594 -11.99039063 12.96117188 -12.08203125 13.74609375 C-11.98576959 16.39099757 -11.50377694 17.82574927 -10 20 C-5.45205815 21.31606279 -5.45205815 21.31606279 -1.125 19.9375 C1.09194684 16.11942488 1.23242545 13.00717694 0.25 8.75 C-0.82976037 5.73220733 -0.82976037 5.73220733 -4 4 C-7.80775554 3.61062739 -7.80775554 3.61062739 -9.69921875 5.22265625 Z " fill="#FBFCFB" transform="translate(258,102)"/>
<path d="M0 0 C5.94 0 11.88 0 18 0 C17.67 1.65 17.34 3.3 17 5 C13.37 4.67 9.74 4.34 6 4 C6 5.98 6 7.96 6 10 C9.3 10 12.6 10 16 10 C15.67 11.65 15.34 13.3 15 15 C12.36 15 9.72 15 7 15 C6.67 16.98 6.34 18.96 6 21 C9.96 21 13.92 21 18 21 C18 22.32 18 23.64 18 25 C12.06 25 6.12 25 0 25 C0 16.75 0 8.5 0 0 Z " fill="#F1F8F9" transform="translate(288,102)"/>
<path d="M0 0 C12.95917816 -0.60556907 12.95917816 -0.60556907 17.4375 2 C19.25593885 5.49140259 19.42094495 7.39794704 18.6328125 11.1953125 C18 13 18 13 16.4375 15 C12.85516698 16.46967509 9.85751467 16.19287573 6 16 C6 18.97 6 21.94 6 25 C4.02 25 2.04 25 0 25 C0 16.75 0 8.5 0 0 Z M7 4 C5.58422523 5.18424326 5.58422523 5.18424326 5.9375 8.5625 C5.958125 9.696875 5.97875 10.83125 6 12 C7.98 11.67 9.96 11.34 12 11 C12.33 9.35 12.66 7.7 13 6 C10.18490007 3.7226499 10.18490007 3.7226499 7 4 Z " fill="#FBFCF9" transform="translate(267,102)"/>
<path d="M0 0 C13.32418311 -0.49348826 13.32418311 -0.49348826 16.41796875 1.765625 C18.53186029 4.75117059 18.6474305 6.53152422 18.44140625 10.09375 C18 12 18 12 16 14.5 C12.01367043 16.49316478 9.41916048 16.2996041 5 16 C5 18.97 5 21.94 5 25 C3.35 25 1.7 25 0 25 C0 16.75 0 8.5 0 0 Z M5 5 C5 6.98 5 8.96 5 11 C7.6666419 12.33332095 9.16680303 11.67102033 12 11 C12 9.02 12 7.04 12 5 C8.98968256 4.06576355 8.13349732 3.95550089 5 5 Z " fill="#FAFBF7" transform="translate(200,102)"/>
<path d="M0 0 C15.18131598 -0.28113548 15.18131598 -0.28113548 18 2 C19.39554613 6.77868826 19.43178613 12.22737956 18 17 C17.34 16.67 16.68 16.34 16 16 C15.08776132 12.70580475 14.59718825 9.36984798 14 6 C10.7 5.67 7.4 5.34 4 5 C3.93941406 6.27617188 3.87882813 7.55234375 3.81640625 8.8671875 C3.73200432 10.53647016 3.64735614 12.20574037 3.5625 13.875 C3.50352539 15.13763672 3.50352539 15.13763672 3.44335938 16.42578125 C3.40146484 17.23144531 3.35957031 18.03710938 3.31640625 18.8671875 C3.27974854 19.61081543 3.24309082 20.35444336 3.20532227 21.12060547 C3 23 3 23 2 25 C1.34 25 0.68 25 0 25 C0 16.75 0 8.5 0 0 Z " fill="#F9FCFC" transform="translate(140,102)"/>
<path d="M0 0 C0.886875 0.165 1.77375 0.33 2.6875 0.5 C1.61011163 4.31983149 0.15264338 7.49364096 -1.875 10.875 C-4.3584425 15.17719892 -5.04334314 18.56545757 -5.3125 23.5 C-5.6425 23.5 -5.9725 23.5 -6.3125 23.5 C-6.6425 20.53 -6.9725 17.56 -7.3125 14.5 C-7.9725 15.82 -8.6325 17.14 -9.3125 18.5 C-9.43367188 17.88511719 -9.55484375 17.27023438 -9.6796875 16.63671875 C-9.84726562 15.82847656 -10.01484375 15.02023438 -10.1875 14.1875 C-10.34992188 13.38699219 -10.51234375 12.58648437 -10.6796875 11.76171875 C-11.25728999 9.24698882 -11.25728999 9.24698882 -13.3125 6.5 C-13.3125 5.51 -13.3125 4.52 -13.3125 3.5 C-10.3125 4.5 -10.3125 4.5 -9.125 6.5625 C-8.856875 7.201875 -8.58875 7.84125 -8.3125 8.5 C-8.02117187 7.9225 -7.72984375 7.345 -7.4296875 6.75 C-4.03977273 0.60977702 -4.03977273 0.60977702 0 0 Z " fill="#F7F4E6" transform="translate(364.3125,101.5)"/>
<path d="M0 0 C2 1 2 1 3 2 C3.04080783 3.99958364 3.04254356 6.00045254 3 8 C6.3 8 9.6 8 13 8 C12.67 9.65 12.34 11.3 12 13 C9.36 13 6.72 13 4 13 C3.34 15.31 2.68 17.62 2 20 C1.34 19.67 0.68 19.34 0 19 C-0.1938211 16.02111874 -0.38035102 13.04209754 -0.5625 10.0625 C-0.61857422 9.21236328 -0.67464844 8.36222656 -0.73242188 7.48632812 C-0.80493164 6.27299805 -0.80493164 6.27299805 -0.87890625 5.03515625 C-0.9260376 4.2862915 -0.97316895 3.53742676 -1.02172852 2.76586914 C-1 1 -1 1 0 0 Z " fill="#FBFBF2" transform="translate(291,104)"/>
<path d="M0 0 C3.30243306 3.30243306 2.64997776 7.44971086 3 12 C7.62 12 12.24 12 17 12 C17 13.32 17 14.64 17 16 C11.72 16 6.44 16 1 16 C0.67 10.72 0.34 5.44 0 0 Z " fill="#FBFDFB" transform="translate(289,111)"/>
<path d="M0 0 C3 3 3 3 3.35644531 5.05297852 C3.34709961 5.82053467 3.33775391 6.58809082 3.328125 7.37890625 C3.32039062 8.63670898 3.32039062 8.63670898 3.3125 9.91992188 C3.291875 10.79197266 3.27125 11.66402344 3.25 12.5625 C3.24226562 13.87637695 3.24226562 13.87637695 3.234375 15.21679688 C3.15463447 21.69073106 3.15463447 21.69073106 2 24 C1.34 24 0.68 24 0 24 C0 16.08 0 8.16 0 0 Z " fill="#E6F6F8" transform="translate(140,103)"/>
<path d="M0 0 C1.32 0.66 2.64 1.32 4 2 C4.33 1.34 4.66 0.68 5 0 C5.99 0 6.98 0 8 0 C8 2.64 8 5.28 8 8 C5.03 8 2.06 8 -1 8 C-1.04241723 5.66705225 -1.04092937 3.33297433 -1 1 C-0.67 0.67 -0.34 0.34 0 0 Z " fill="#FAFAF9" transform="translate(293,143)"/>
<path d="M0 0 C0.33 0 0.66 0 1 0 C1.33 5.61 1.66 11.22 2 17 C0.35 17 -1.3 17 -3 17 C-4.10370043 13.6888987 -3.92673641 11.75251051 -3.5625 8.3125 C-3.46066406 7.31863281 -3.35882813 6.32476562 -3.25390625 5.30078125 C-3.17011719 4.54152344 -3.08632813 3.78226562 -3 3 C-2.01 2.67 -1.02 2.34 0 2 C0 1.34 0 0.68 0 0 Z " fill="#F9FDFB" transform="translate(311,110)"/>
<path d="M0 0 C0.99 0 1.98 0 3 0 C3.33 0.66 3.66 1.32 4 2 C4.33 1.34 4.66 0.68 5 0 C5.99 0 6.98 0 8 0 C8 2.64 8 5.28 8 8 C5.36 8 2.72 8 0 8 C-0.98120464 4.94736336 -0.98120464 3.05263664 0 0 Z " fill="#FBFCFB" transform="translate(233,143)"/>
<path d="M0 0 C0.598125 0.185625 1.19625 0.37125 1.8125 0.5625 C4.16408762 1.22093687 4.16408762 1.22093687 7 0 C8.125 5.75 8.125 5.75 7 8 C4.66666667 8 2.33333333 8 0 8 C0 5.36 0 2.72 0 0 Z " fill="#F8FDFE" transform="translate(312,143)"/>
<path d="M0 0 C0.33 0 0.66 0 1 0 C1 6.93 1 13.86 1 21 C0.01 21 -0.98 21 -2 21 C-1.938125 20.236875 -1.87625 19.47375 -1.8125 18.6875 C-2.03333514 15.52219632 -2.69698534 15.01513783 -5 13 C-5 12.34 -5 11.68 -5 11 C-4.01 11.33 -3.02 11.66 -2 12 C-1.34 8.04 -0.68 4.08 0 0 Z " fill="#F9F7E9" transform="translate(135,106)"/>
<path d="M0 0 C3 3 3 3 3.36328125 6.14453125 C3.34652344 7.35496094 3.32976562 8.56539062 3.3125 9.8125 C3.30863281 11.01519531 3.30476562 12.21789062 3.30078125 13.45703125 C3.00450475 16.94693751 2.25202116 19.74274974 1 23 C0.67 23 0.34 23 0 23 C0 15.41 0 7.82 0 0 Z " fill="#E6F9FB" transform="translate(220,103)"/>
<path d="M0 0 C0.66 0 1.32 0 2 0 C2 7.59 2 15.18 2 23 C1.01 22.67 0.02 22.34 -1 22 C-0.67 14.74 -0.34 7.48 0 0 Z " fill="#F6F1E0" transform="translate(78,102)"/>
<path d="M0 0 C0.598125 0.185625 1.19625 0.37125 1.8125 0.5625 C4.16408762 1.22093687 4.16408762 1.22093687 7 0 C7 2.64 7 5.28 7 8 C6.01 8 5.02 8 4 8 C3.67 7.34 3.34 6.68 3 6 C2.67 6.66 2.34 7.32 2 8 C1.34 8 0.68 8 0 8 C0 5.36 0 2.72 0 0 Z " fill="#FBFCFC" transform="translate(254,143)"/>
<path d="M0 0 C1.2065625 0.0309375 1.2065625 0.0309375 2.4375 0.0625 C3.5625 2.375 3.5625 2.375 4.4375 5.0625 C3.4475 6.5475 3.4475 6.5475 2.4375 8.0625 C-0.125 8.3125 -0.125 8.3125 -2.5625 8.0625 C-3.5625 7.0625 -3.5625 7.0625 -3.6875 4.0625 C-3.52180824 0.08589776 -3.52180824 0.08589776 0 0 Z M-1.5625 3.0625 C-1.5625 4.0525 -1.5625 5.0425 -1.5625 6.0625 C-0.5725 5.7325 0.4175 5.4025 1.4375 5.0625 C0.7775 5.0625 0.1175 5.0625 -0.5625 5.0625 C-0.8925 4.4025 -1.2225 3.7425 -1.5625 3.0625 Z " fill="#FCFCFC" transform="translate(277.5625,142.9375)"/>
<path d="M0 0 C0.99 0 1.98 0 3 0 C4.25664978 2.90600261 5 4.79604584 5 8 C2.36 8 -0.28 8 -3 8 C-1.125 1.125 -1.125 1.125 0 0 Z " fill="#F7FBFB" transform="translate(266,143)"/>
<path d="M0 0 C0.99 0.33 1.98 0.66 3 1 C4.25 7.625 4.25 7.625 2 11 C1.34 11 0.68 11 0 11 C-0.33 11.66 -0.66 12.32 -1 13 C-1.66 12.01 -2.32 11.02 -3 10 C-2.34 9.67 -1.68 9.34 -1 9 C-0.53348793 6.87423218 -0.53348793 6.87423218 -0.375 4.4375 C-0.30023438 3.61121094 -0.22546875 2.78492187 -0.1484375 1.93359375 C-0.09945313 1.29550781 -0.05046875 0.65742187 0 0 Z " fill="#FDFCF0" transform="translate(322,103)"/>
<path d="M0 0 C2.375 -0.125 2.375 -0.125 5 0 C5.66 0.66 6.32 1.32 7 2 C6.44444444 6.55555556 6.44444444 6.55555556 5 8 C3.33382885 8.04063832 1.66611905 8.042721 0 8 C0 5.36 0 2.72 0 0 Z M2 2 C2 3.32 2 4.64 2 6 C2.66 6 3.32 6 4 6 C4 4.68 4 3.36 4 2 C3.34 2 2.68 2 2 2 Z " fill="#FCFDFB" transform="translate(354,143)"/>
<path d="M0 0 C1.98 0 3.96 0 6 0 C6 2.64 6 5.28 6 8 C4.02 8 2.04 8 0 8 C0 5.36 0 2.72 0 0 Z " fill="#FBFBFA" transform="translate(284,143)"/>
<path d="M0 0 C0.99 0 1.98 0 3 0 C3.99 2.64 4.98 5.28 6 8 C3.36 8 0.72 8 -2 8 C-1.125 2.25 -1.125 2.25 0 0 Z " fill="#F9FCFB" transform="translate(246,143)"/>
<path d="M0 0 C1.98 0 3.96 0 6 0 C5.814375 0.94875 5.62875 1.8975 5.4375 2.875 C4.71313368 5.89868793 4.71313368 5.89868793 6 8 C3.69 8 1.38 8 -1 8 C-0.67 5.36 -0.34 2.72 0 0 Z " fill="#FBFCFA" transform="translate(304,143)"/>
<path d="M0 0 C0.66 0 1.32 0 2 0 C2.33 1.98 2.66 3.96 3 6 C2.01 6.66 1.02 7.32 0 8 C-1.09658936 4.71023192 -0.79953138 3.28696233 0 0 Z M-1 8 C-0.34 8.66 0.32 9.32 1 10 C0.625 13.625 0.625 13.625 0 17 C-0.99 17 -1.98 17 -3 17 C-3.25 11.375 -3.25 11.375 -1 8 Z " fill="#F7F4E4" transform="translate(176,105)"/>
<path d="M0 0 C0.928125 0.103125 1.85625 0.20625 2.8125 0.3125 C2.4825 0.9725 2.1525 1.6325 1.8125 2.3125 C1.1525 2.3125 0.4925 2.3125 -0.1875 2.3125 C-1.5075 4.9525 -2.8275 7.5925 -4.1875 10.3125 C-5.1775 10.3125 -6.1675 10.3125 -7.1875 10.3125 C-6.45809445 5.20666118 -5.71457604 0.56025255 0 0 Z " fill="#FBFDFB" transform="translate(364.1875,101.6875)"/>
<path d="M0 0 C0.99 0.33 1.98 0.66 3 1 C2.34 2.65 1.68 4.3 1 6 C0.34 6 -0.32 6 -1 6 C-0.34 7.65 0.32 9.3 1 11 C-0.32 10.67 -1.64 10.34 -3 10 C-3 9.01 -3 8.02 -3 7 C-3.66 6.67 -4.32 6.34 -5 6 C-4.01 5.67 -3.02 5.34 -2 5 C-0.78130071 2.49552484 -0.78130071 2.49552484 0 0 Z " fill="#FAF6E7" transform="translate(183,107)"/>
<path d="M0 0 C0.99 0.33 1.98 0.66 3 1 C3.2493357 2.60115576 3.47378648 4.20620159 3.6875 5.8125 C3.87892578 7.15248047 3.87892578 7.15248047 4.07421875 8.51953125 C4 11 4 11 2.51953125 12.82421875 C1.76736328 13.40623047 1.76736328 13.40623047 1 14 C0.06380187 10.84493858 -0.1057123 8.03413498 -0.0625 4.75 C-0.05347656 3.85796875 -0.04445313 2.9659375 -0.03515625 2.046875 C-0.02355469 1.37140625 -0.01195312 0.6959375 0 0 Z " fill="#FCF9E3" transform="translate(261,108)"/>
<path d="M0 0 C1.32 0.33 2.64 0.66 4 1 C3.67 1.99 3.34 2.98 3 4 C2.85426942 5.47965926 2.75336732 6.96403843 2.68359375 8.44921875 C2.64169922 9.29677734 2.59980469 10.14433594 2.55664062 11.01757812 C2.49766602 12.33918945 2.49766602 12.33918945 2.4375 13.6875 C2.39431641 14.58017578 2.35113281 15.47285156 2.30664062 16.39257812 C2.20064647 18.59490108 2.09857949 20.79733473 2 23 C0 21 0 21 -0.22705078 18.84521484 C-0.21657715 17.97590332 -0.20610352 17.1065918 -0.1953125 16.2109375 C-0.18886719 15.26992187 -0.18242187 14.32890625 -0.17578125 13.359375 C-0.15902344 12.37453125 -0.14226562 11.3896875 -0.125 10.375 C-0.11597656 9.38242188 -0.10695313 8.38984375 -0.09765625 7.3671875 C-0.07404116 4.91121866 -0.04110799 2.45572832 0 0 Z " fill="#FBF7E9" transform="translate(337,104)"/>
<path d="M0 0 C2.31 0 4.62 0 7 0 C7 0.66 7 1.32 7 2 C6.34 2 5.68 2 5 2 C5 3.98 5 5.96 5 8 C4.01 8 3.02 8 2 8 C1.34 5.36 0.68 2.72 0 0 Z " fill="#F8FCF8" transform="translate(344,143)"/>
<path d="M0 0 C0.99 0 1.98 0 3 0 C2.54705135 1.75140143 2.08741252 3.50107344 1.625 5.25 C1.36976562 6.22453125 1.11453125 7.1990625 0.8515625 8.203125 C0.10401491 10.65837303 -0.77123817 12.75617405 -2 15 C-3.11563018 11.62953982 -2.86843709 9.25980759 -2.125 5.8125 C-1.94195312 4.93207031 -1.75890625 4.05164063 -1.5703125 3.14453125 C-1 1 -1 1 0 0 Z " fill="#F8F3E6" transform="translate(99,107)"/>
<path d="M0 0 C1.5 1.1875 1.5 1.1875 3 3 C3.1875 5.6875 3.1875 5.6875 3 8 C1.68 8.33 0.36 8.66 -1 9 C-2.25541557 5.23375329 -1.37061958 3.62811066 0 0 Z " fill="#FBF7EC" transform="translate(283,104)"/>
<path d="M0 0 C0.66 0 1.32 0 2 0 C1.46884894 4.51478398 -0.36620292 7.34666857 -3 11 C-3.66 10.34 -4.32 9.68 -5 9 C-3.35 6.03 -1.7 3.06 0 0 Z " fill="#FCF8EA" transform="translate(364,103)"/>
<path d="M0 0 C2.95183101 2.95183101 3.08663988 5.95511947 4 10 C3.01 10.33 2.02 10.66 1 11 C-0.28317892 7.15046324 -0.06643637 4.05261865 0 0 Z " fill="#FCFAEA" transform="translate(108,113)"/>
<path d="M0 0 C1.98 0 3.96 0 6 0 C6 0.66 6 1.32 6 2 C5.34 2 4.68 2 4 2 C4 3.98 4 5.96 4 8 C3.34 8 2.68 8 2 8 C2 6.02 2 4.04 2 2 C1.34 2 0.68 2 0 2 C0 1.34 0 0.68 0 0 Z " fill="#FDFDFC" transform="translate(322,143)"/>
<path d="M0 0 C0.66 0.33 1.32 0.66 2 1 C2 3.97 2 6.94 2 10 C1.34 10 0.68 10 0 10 C0 9.01 0 8.02 0 7 C-0.66 7 -1.32 7 -2 7 C-2.125 4.625 -2.125 4.625 -2 2 C-1.34 1.34 -0.68 0.68 0 0 Z " fill="#F9F5E5" transform="translate(204,104)"/>
<path d="M0 0 C0.66 0 1.32 0 2 0 C3.125 5.75 3.125 5.75 2 8 C1.01 7.67 0.02 7.34 -1 7 C-0.67 4.69 -0.34 2.38 0 0 Z " fill="#F9F5F2" transform="translate(317,143)"/>
<path d="M0 0 C0.66 0 1.32 0 2 0 C2 1.98 2 3.96 2 6 C2.99 6 3.98 6 5 6 C5 6.66 5 7.32 5 8 C3.35 8 1.7 8 0 8 C0 5.36 0 2.72 0 0 Z " fill="#FBFCFA" transform="translate(337,143)"/>
<path d="M0 0 C0.99 0 1.98 0 3 0 C2.67 1.65 2.34 3.3 2 5 C-0.31 5 -2.62 5 -5 5 C-3.68 4.67 -2.36 4.34 -1 4 C-0.67 2.68 -0.34 1.36 0 0 Z " fill="#F3F1E6" transform="translate(301,112)"/>
<path d="M0 0 C2.39456443 2.39456443 2.75546876 3.65807308 3 7 C1.5625 8.8125 1.5625 8.8125 0 10 C-1.125 3.375 -1.125 3.375 0 0 Z " fill="#E6F8FC" transform="translate(241,110)"/>
<path d="M0 0 C0.99 0.33 1.98 0.66 3 1 C3.33 3.31 3.66 5.62 4 8 C3.01 8.495 3.01 8.495 2 9 C1.34 6.03 0.68 3.06 0 0 Z " fill="#FAF4E5" transform="translate(322,103)"/>
<path d="M0 0 C0.66 0 1.32 0 2 0 C2 2.31 2 4.62 2 7 C1.01 6.67 0.02 6.34 -1 6 C-1.042721 4.33388095 -1.04063832 2.66617115 -1 1 C-0.67 0.67 -0.34 0.34 0 0 Z " fill="#FBF6E0" transform="translate(292,106)"/>
<path d="M0 0 C0.99 0.33 1.98 0.66 3 1 C2.67 2.65 2.34 4.3 2 6 C2.66 6.33 3.32 6.66 4 7 C3.34 7 2.68 7 2 7 C1.67 7.66 1.34 8.32 1 9 C-0.4783226 6.04335481 -0.06032783 3.25770263 0 0 Z " fill="#FBF5E4" transform="translate(224,106)"/>
<path d="M0 0 C0.99 0.99 1.98 1.98 3 3 C2.85546875 5.48046875 2.85546875 5.48046875 2.1875 8.1875 C1.97480469 9.08855469 1.76210938 9.98960938 1.54296875 10.91796875 C1.27419922 11.94857422 1.27419922 11.94857422 1 13 C0.67 13 0.34 13 0 13 C0 8.71 0 4.42 0 0 Z " fill="#F9EDDC" transform="translate(358,112)"/>
</svg>
